<svg xmlns="http://www.w3.org/2000/svg" xmlns:xlink="http://www.w3.org/1999/xlink" version="1.1" id="Layer_1" x="0px" y="0px" width="100px" height="93.881px" viewBox="0 0 100 93.881" enable-background="new 0 0 100 93.881" xml:space="preserve">
<g>
	<path fill="#003262" d="M99.344,72.236c-0.786-1.053-3.702-1.6-5-0.971c-2.807,1.361-5.146,3.666-7.734,5.504   c-8.161,5.797-9.335,5.777-17.196-0.598c-1.486-1.203-2.968-2.414-4.453-3.621c0.137-0.416,0.229-0.852,0.229-1.314V31.869   c0.328-2.091-0.56-4.221-2.419-5.311l-10.398-6.087c-1.246-0.729-2.685-0.847-3.999-0.455c-0.115,0.013-0.229,0.008-0.344,0.03   l-16.701,3.232c-0.307,0.059-0.601,0.149-0.879,0.266c-0.157,0.002-0.312-0.011-0.471,0.005c-2.576,0.264-4.469,2.388-4.227,4.742   l1.395,13.617c-1.34-0.973-2.749-1.861-4.121-2.792c-0.422,0.514-0.844,1.027-1.266,1.541c1.473,1.393,2.86,2.885,4.426,4.163   c1.379,1.128,2.764,2.251,4.143,3.378L22.826,61.99l-10.202-5.783c-2.061-1.168-4.85-0.137-6.232,2.301   c-1.382,2.439-0.833,5.363,1.225,6.531l13.903,7.881c0.199,0.113,0.409,0.188,0.619,0.26c0.096,0.059,0.178,0.129,0.277,0.184   c2.463,1.34,5.375,0.74,6.51-1.34l9.408-17.293c0.484,0.395,0.97,0.791,1.454,1.186l-16.003,29.42   c-1.134,2.078-0.053,4.85,2.41,6.191c0.121,0.068,0.248,0.107,0.372,0.164l-0.685,0.01l-4.413,0.063   c-0.369,0.002-0.736,0.02-1.102,0.004c-0.369-0.076-0.734,0.166-1.1,0.254c-0.731,0.234-1.463,0.523-2.196,0.842   c0.742,0.293,1.479,0.561,2.217,0.775c0.369,0.078,0.742,0.313,1.107,0.223c0.367-0.027,0.734-0.016,1.102-0.023l4.412-0.064   l8.809-0.119c0.273,0.025,0.507,0.039,0.757,0.031c0.286-0.004,0.573-0.008,0.858-0.049c0.285-0.035,0.57-0.057,0.854-0.137   l0.424-0.1c0.142-0.037,0.297-0.021,0.426-0.111c0.254-0.176,0.49-0.369,0.724-0.551c0.118-0.08,0.212-0.215,0.314-0.32   c0.101-0.109,0.199-0.223,0.29-0.338l0.268-0.334l0.197-0.387l0.327-0.758l-0.734,0.318l-0.332,0.148l-0.367,0.078l-0.348,0.072   c-0.114,0.016-0.21,0.063-0.333,0.059c-0.237,0.008-0.465,0.008-0.679,0.018c-0.194,0.066-0.4,0.139-0.608,0.176   c-0.203,0.066-0.422,0.078-0.638,0.104c-0.214,0.035-0.433,0.035-0.647,0.039c-0.209,0.01-0.456-0.014-0.607-0.025l-0.137-0.01   h-0.022l-3.45,0.047c0.6-0.344,1.109-0.814,1.449-1.439l15.092-27.738c2.926,2.387,5.851,4.775,8.777,7.16v1.629   c0,2.365,1.928,4.287,4.31,4.287c0.803,0,1.546-0.234,2.19-0.615c2.671,2.176,5.337,4.357,8.008,6.533   c8.76,7.127,21.819,5.434,28.27-3.912C100.22,76.267,100.216,73.408,99.344,72.236z M40.138,31.151   c-0.52,0.336-0.959,0.778-1.265,1.338l-2.748,5.052l-0.567-5.54l4.604-0.892L40.138,31.151z M49.248,59.775l1.665-3.059   c0.291-0.311,0.563-0.643,0.786-1.027l4.873-8.324V65.73C54.132,63.744,51.689,61.761,49.248,59.775z"/>
	<circle fill="#003262" cx="61.984" cy="9.963" r="9.963"/>
	<path fill="#003262" d="M9.912,52.32c0.191-0.316,0.366-0.639,0.567-0.945c0.258-0.275,0.242-0.713,0.356-1.07   c0.178-0.748,0.313-1.523,0.422-2.313c-0.637,0.479-1.25,0.973-1.814,1.49c-0.26,0.273-0.652,0.473-0.767,0.83   c-0.167,0.326-0.369,0.637-0.551,0.953l-2.238,3.803l-4.472,7.586c-0.165,0.223-0.298,0.416-0.422,0.635   c-0.146,0.244-0.291,0.492-0.404,0.758c-0.118,0.262-0.247,0.516-0.326,0.799l-0.136,0.414C0.083,65.4-0.008,65.527,0,65.681   c0.02,0.311,0.06,0.611,0.094,0.904c0.009,0.143,0.074,0.293,0.111,0.436c0.042,0.145,0.088,0.287,0.138,0.424l0.148,0.402   l0.228,0.371l0.477,0.674l0.109-0.795l0.044-0.361l0.125-0.355l0.118-0.332c0.046-0.109,0.056-0.211,0.124-0.316   c0.116-0.205,0.236-0.4,0.337-0.59c0.042-0.199,0.092-0.412,0.166-0.611c0.049-0.205,0.154-0.4,0.244-0.598   c0.082-0.201,0.194-0.389,0.304-0.574c0.099-0.184,0.247-0.383,0.335-0.506l0.08-0.109l0.012-0.021l4.479-7.602L9.912,52.32z"/>
</g>
</svg>