<svg xmlns="http://www.w3.org/2000/svg" xmlns:xlink="http://www.w3.org/1999/xlink" version="1.1" x="0px" y="0px" width="100px" height="100px" viewBox="0 0 100 100" enable-background="new 0 0 100 100" xml:space="preserve">
<g id="Captions">
</g>
<g id="Your_Icon">
	<polygon fill="#AAAAAA" points="22.746,5.314 3.883,27.65 22.746,27.65  "/>
	<path fill="#AAAAAA" d="M26.119,4.171v26.835H2.5V98h94.088L97,4.171H26.119z M80.653,30.424c0.547,0.12,0.807,0.215,0.771,0.615   c-0.016,0.312-0.591,0.516-0.902,0.62l-0.359,0.131c-0.464,0.168-0.942,0.332-1.383,0.64c-0.075,0.064-0.16,0.12-0.244,0.175   c-0.516,0.376-1.055,0.776-1.653,0.704c-0.345-0.04-0.612-0.175-0.764-0.396c-0.147-0.21-0.188-0.499-0.112-0.81   c0.124-0.507,0.068-0.952,0.024-1.391c-0.04-0.34-0.071-0.655-0.036-1.007c0.092-0.679,0.437-0.768,0.727-0.768   c0.596,0,1.419,0.424,2.158,0.799c0.524,0.272,0.982,0.504,1.314,0.556C80.333,30.349,80.485,30.388,80.653,30.424z M66.029,40.05   c-4.759,0-8.619-3.968-8.619-8.867c0-4.892,3.86-8.863,8.619-8.863c4.762,0,8.617,3.971,8.617,8.863   C74.646,36.082,70.791,40.05,66.029,40.05z M67.315,44.417c-0.256,0.547-0.487,1.023-0.54,1.359   c-0.051,0.135-0.088,0.304-0.123,0.475c-0.104,0.5-0.188,0.796-0.536,0.796h-0.056c-0.296-0.02-0.495-0.615-0.6-0.927l-0.131-0.383   c-0.161-0.496-0.312-0.96-0.612-1.416c-0.056-0.08-0.111-0.16-0.167-0.247c-0.369-0.536-0.759-1.104-0.684-1.719   c0.068-0.6,0.392-0.947,0.87-0.947c0.093,0,0.192,0.009,0.292,0.04c0.425,0.108,0.912,0.073,1.351,0.024   c0.327-0.04,0.635-0.084,0.967-0.032c0.341,0.049,0.56,0.164,0.664,0.363C68.318,42.354,67.763,43.499,67.315,44.417z    M58.413,41.536c-0.064-0.66-0.124-1.346,0.239-1.846c0.229-0.314,0.504-0.491,0.792-0.491c0.227,0,0.45,0.104,0.651,0.312   c0.363,0.359,0.771,0.54,1.155,0.71c0.308,0.137,0.587,0.264,0.854,0.476c0.274,0.219,0.416,0.443,0.398,0.671   c-0.022,0.635-1.038,1.339-1.866,1.898c-0.486,0.343-0.918,0.635-1.126,0.895c-0.115,0.088-0.224,0.217-0.34,0.352   c-0.2,0.224-0.42,0.476-0.639,0.476c-0.076,0-0.16-0.031-0.248-0.093c-0.252-0.175-0.136-0.799-0.071-1.122l0.071-0.403   c0.091-0.487,0.188-0.991,0.148-1.534C58.429,41.739,58.417,41.635,58.413,41.536z M58.065,37.795   c-0.017,0.276-0.192,0.549-0.476,0.764c-0.257,0.201-0.587,0.284-1.056,0.284c-0.234,0-0.482-0.02-0.719-0.043   c-0.104-0.008-0.2-0.017-0.291-0.024c-0.528-0.04-1.024,0.056-1.503,0.155l-0.383,0.076c-0.188,0.044-0.42,0.084-0.64,0.084   c-0.336,0-0.412-0.12-0.44-0.16c-0.215-0.323-0.04-0.547,0.376-0.93c0.132-0.121,0.251-0.237,0.34-0.356   c0.252-0.212,0.539-0.651,0.862-1.159c0.527-0.811,1.244-1.922,1.862-1.922c0.203,0,0.411,0.136,0.612,0.408   c0.211,0.276,0.33,0.575,0.463,0.887c0.172,0.399,0.348,0.808,0.695,1.182C57.988,37.281,58.086,37.536,58.065,37.795z    M69.697,40.973c0.104-0.224,0.319-0.392,0.611-0.48c0.482-0.144,0.834-0.403,1.178-0.664c0.268-0.208,0.516-0.399,0.832-0.536   c0.163-0.071,0.316-0.103,0.442-0.103c0.792,0,0.888,1.499,0.968,2.696c0.04,0.616,0.068,1.14,0.188,1.459   c0.016,0.144,0.068,0.312,0.115,0.476c0.182,0.547,0.221,0.828-0.119,1.003c-0.264,0.132-0.72-0.272-0.963-0.496l-0.304-0.263   c-0.363-0.332-0.743-0.671-1.219-0.907c-0.092-0.04-0.176-0.084-0.269-0.124c-0.578-0.284-1.187-0.567-1.421-1.143   C69.589,41.556,69.585,41.236,69.697,40.973z M73.825,37.795c-0.024-0.259,0.087-0.522,0.295-0.755   c0.348-0.375,0.524-0.783,0.695-1.182c0.132-0.312,0.256-0.611,0.468-0.887c0.195-0.272,0.399-0.408,0.616-0.408   c0.603,0,1.321,1.111,1.853,1.922c0.323,0.508,0.611,0.947,0.867,1.159c0.089,0.12,0.213,0.235,0.344,0.356   c0.412,0.383,0.588,0.606,0.367,0.93c-0.023,0.04-0.104,0.16-0.442,0.16c-0.217,0-0.447-0.04-0.636-0.084l-0.388-0.076   c-0.399-0.08-0.812-0.164-1.247-0.164c-0.08,0-0.164,0-0.248,0.008c-0.1,0.007-0.191,0.016-0.295,0.024   c-0.239,0.023-0.48,0.043-0.715,0.043c-0.476,0-0.804-0.083-1.062-0.284C74.016,38.344,73.845,38.071,73.825,37.795z    M76.394,23.248c0.588-0.04,1.104-0.069,1.411-0.197c0.145-0.016,0.304-0.064,0.463-0.124c0.199-0.064,0.403-0.128,0.571-0.128   c0.184,0,0.304,0.081,0.388,0.26c0.137,0.292-0.264,0.764-0.479,1.019l-0.261,0.299c-0.319,0.38-0.646,0.763-0.875,1.255   c-0.044,0.084-0.088,0.181-0.132,0.276c-0.264,0.606-0.543,1.23-1.095,1.474c-0.619,0.276-1.154,0.044-1.334-0.595   c-0.145-0.503-0.405-0.863-0.655-1.211c-0.201-0.276-0.385-0.54-0.512-0.859c-0.137-0.34-0.144-0.6-0.017-0.799   C74.195,23.399,75.415,23.312,76.394,23.248z M69.501,20.338c0.236-0.576,0.847-0.859,1.432-1.134   c0.091-0.048,0.175-0.088,0.263-0.128c0.472-0.239,0.851-0.584,1.214-0.907l0.305-0.268c0.211-0.19,0.575-0.52,0.839-0.52   c0.052,0,0.084,0.008,0.124,0.033c0.339,0.168,0.295,0.447,0.124,0.991c-0.053,0.175-0.104,0.335-0.124,0.487   c-0.116,0.312-0.152,0.839-0.184,1.446c-0.077,1.208-0.168,2.706-0.963,2.706c-0.133,0-0.28-0.04-0.451-0.108   c-0.308-0.137-0.561-0.328-0.823-0.531c-0.348-0.261-0.7-0.529-1.184-0.672c-0.291-0.084-0.495-0.251-0.607-0.475   C69.346,21.001,69.356,20.678,69.501,20.338z M64.551,18.281c0.056-0.08,0.111-0.164,0.167-0.243c0.3-0.449,0.451-0.92,0.612-1.415   l0.131-0.385c0.104-0.312,0.304-0.903,0.6-0.927h0.056c0.348,0,0.432,0.301,0.536,0.799c0.035,0.176,0.072,0.336,0.123,0.471   c0.053,0.34,0.284,0.808,0.54,1.359c0.447,0.919,1.003,2.062,0.695,2.623c-0.104,0.195-0.323,0.311-0.664,0.35   c-0.1,0.024-0.211,0.024-0.314,0.024c-0.217,0-0.432-0.024-0.652-0.047c-0.443-0.057-0.926-0.088-1.351,0.022   c-0.627,0.161-1.091-0.199-1.162-0.91C63.792,19.383,64.182,18.828,64.551,18.281z M58.518,17.333   c0.087-0.064,0.166-0.095,0.25-0.095c0.221,0,0.44,0.255,0.64,0.479c0.117,0.137,0.221,0.264,0.341,0.356   c0.203,0.252,0.64,0.556,1.127,0.891c0.825,0.564,1.846,1.263,1.865,1.895c0.005,0.232-0.119,0.456-0.404,0.679   c-0.255,0.208-0.547,0.332-0.854,0.472c-0.379,0.175-0.786,0.352-1.151,0.71c-0.199,0.201-0.427,0.308-0.655,0.308   c-0.283,0-0.558-0.171-0.79-0.483c-0.36-0.504-0.297-1.19-0.236-1.85c0.004-0.104,0.013-0.199,0.02-0.299   c0.044-0.544-0.051-1.027-0.15-1.538l-0.073-0.396C58.385,18.124,58.27,17.509,58.518,17.333z M52.663,23.06   c0.088-0.179,0.199-0.26,0.383-0.26c0.173,0,0.376,0.064,0.575,0.137c0.164,0.051,0.316,0.1,0.468,0.124   c0.301,0.12,0.82,0.148,1.407,0.188c0.982,0.064,2.193,0.151,2.529,0.67c0.127,0.2,0.124,0.459-0.017,0.799   c-0.131,0.319-0.319,0.583-0.512,0.859c-0.251,0.339-0.514,0.708-0.646,1.207c-0.133,0.46-0.432,0.715-0.843,0.715   c-0.16,0-0.332-0.04-0.508-0.115c-0.556-0.252-0.832-0.868-1.1-1.474c-0.04-0.096-0.084-0.192-0.127-0.276   c-0.225-0.492-0.548-0.875-0.876-1.255l-0.255-0.299C52.935,23.815,52.527,23.352,52.663,23.06z M51.408,30.424   c0.168-0.036,0.323-0.075,0.456-0.132c0.331-0.051,0.787-0.284,1.321-0.556c0.732-0.375,1.562-0.799,2.153-0.799   c0.288,0,0.637,0.088,0.729,0.768c0.04,0.352,0,0.667-0.031,1.007c-0.053,0.432-0.102,0.883,0.02,1.391   c0.075,0.312,0.036,0.6-0.108,0.81c-0.159,0.221-0.42,0.356-0.771,0.396c-0.6,0.073-1.14-0.328-1.659-0.704   c-0.084-0.055-0.164-0.111-0.239-0.175c-0.44-0.308-0.912-0.472-1.375-0.64l-0.367-0.131c-0.308-0.104-0.883-0.308-0.903-0.62   C50.604,30.639,50.861,30.543,51.408,30.424z M90.291,90.017H10.072V47.441l9.589,29.441l17.767-33.14l22.731,29.859l20.614-18.828   l9.518,15.253V90.017z"/>
</g>
</svg>